<?xml version="1.0" encoding="UTF-8" standalone="no"?>
<!-- Created with Inkscape (http://www.inkscape.org/) -->

<svg
   width="291.05942mm"
   height="53.306mm"
   viewBox="0 0 291.05942 53.306"
   version="1.1"
   id="svg1014"
   inkscape:version="1.2.2 (b0a8486541, 2022-12-01)"
   sodipodi:docname="tt_logo_hor.svg"
   xmlns:inkscape="http://www.inkscape.org/namespaces/inkscape"
   xmlns:sodipodi="http://sodipodi.sourceforge.net/DTD/sodipodi-0.dtd"
   xmlns="http://www.w3.org/2000/svg"
   xmlns:svg="http://www.w3.org/2000/svg">
  <sodipodi:namedview
     id="namedview1016"
     pagecolor="#ffffff"
     bordercolor="#666666"
     borderopacity="1.0"
     inkscape:showpageshadow="2"
     inkscape:pageopacity="0.0"
     inkscape:pagecheckerboard="0"
     inkscape:deskcolor="#d1d1d1"
     inkscape:document-units="mm"
     showgrid="false"
     inkscape:zoom="0.76613356"
     inkscape:cx="706.1432"
     inkscape:cy="261.05109"
     inkscape:window-width="1920"
     inkscape:window-height="1010"
     inkscape:window-x="1920"
     inkscape:window-y="406"
     inkscape:window-maximized="1"
     inkscape:current-layer="layer1" />
  <defs
     id="defs1011" />
  <g
     inkscape:label="Layer 1"
     inkscape:groupmode="layer"
     id="layer1"
     transform="translate(-3.2188119,-7.6080704)">
    <g
       id="g58"
       transform="matrix(0.13624273,0,0,0.13624273,3.2188119,125.86676)">
	<g
   id="g8">
		<g
   id="g6">
			<path
   class="st0"
   d="m 1836.03,-868 h 300.3 l -7.42,70.65 h -299.78 z"
   id="path4"
   style="fill:#7f49f3" />

		</g>

	</g>

	<g
   id="g12">
		<path
   class="st1"
   d="m 204.27,-797.35 -27.54,261.61 -77.65,59 34.54,-320.61 H 62.98 L 0,-868 h 1829.33 l -7.42,70.65 z"
   id="path10"
   style="fill:#2305f1" />

	</g>

	<g
   id="g16">
		<path
   class="st1"
   d="m 272.1,-606.39 h 141.29 l -7.42,70.65 H 194.03 L 220,-783 h 211.94 l -7.42,70.65 h -141.3 l -1.77,17.66 h 141.29 l -7.42,70.65 H 274.04 Z"
   id="path14"
   style="fill:#2305f1" />

	</g>

	<g
   id="g20">
		<path
   class="st1"
   d="m 661.53,-783 -7.42,70.65 H 512.82 l -11.12,105.96 h 141.29 l -7.42,70.65 H 423.63 L 449.59,-783 Z"
   id="path18"
   style="fill:#2305f1" />

	</g>

	<g
   id="g24">
		<path
   class="st1"
   d="m 742.42,-712.35 -18.54,176.61 -77.65,59 32.96,-306.26 h 211.94 l -25.96,247.26 h -70.64 l 18.54,-176.61 z"
   id="path22"
   style="fill:#2305f1" />

	</g>

	<g
   id="g28">
		<path
   class="st1"
   d="m 908.79,-783 h 211.94 l -25.96,247.26 H 882.83 Z m 63.23,70.65 -11.13,105.97 h 70.64 l 11.13,-105.97 z"
   id="path26"
   style="fill:#2305f1" />

	</g>

	<g
   id="g32">
		<path
   class="st1"
   d="m 1272.26,-712.35 -18.54,176.61 -77.65,59 25.54,-235.61 h -70.65 l 7.42,-70.65 h 211.94 l -7.42,70.65 z"
   id="path30"
   style="fill:#2305f1" />

	</g>

	<g
   id="g36">
		<path
   class="st1"
   d="m 1420.08,-606.39 h 141.29 l -7.42,70.65 H 1342.01 L 1367.98,-783 h 211.94 l -7.42,70.65 h -141.29 l -1.77,17.66 h 141.29 l -7.42,70.65 h -141.29 z"
   id="path34"
   style="fill:#2305f1" />

	</g>

	<g
   id="g40">
		<path
   class="st1"
   d="m 1597.58,-783 h 220.77 l -40.44,123.63 14.48,123.63 h -70.65 l -10.42,-88.31 h -59.7 l -9.36,88.31 -77.65,59 z m 63.23,70.65 -1.77,17.66 h 59.7 l 5.83,-17.66 z"
   id="path38"
   style="fill:#2305f1" />

	</g>

	<g
   id="g44">
		<path
   class="st1"
   d="m 1915.48,-783 h 211.94 l -25.96,247.26 h -211.94 z m 63.23,70.65 -11.13,105.97 h 70.64 l 11.13,-105.97 z"
   id="path42"
   style="fill:#2305f1" />

	</g>

	<g
   id="g56">
		<g
   id="g54">
			<g
   id="g48">
				<polygon
   class="st1"
   points="1897.82,-783 1827.18,-783 1820.63,-720.66 1891.28,-720.66 "
   id="polygon46"
   style="fill:#2305f1" />

			</g>

			<g
   id="g52">
				<polygon
   class="st1"
   points="1801.21,-535.74 1871.86,-535.74 1890.23,-710.66 1819.58,-710.66 "
   id="polygon50"
   style="fill:#2305f1" />

			</g>

		</g>

	</g>

</g>
  </g>
</svg>
